<?xml version="1.0" encoding="UTF-8"?>
<svg viewBox="0 0 610 610" xmlns="http://www.w3.org/2000/svg" xmlns:xlink="http://www.w3.org/1999/xlink">
 <g transform="translate(5 -397.36)">
  <path d="m1.538 402.36h596.92a1.538 1.538 0 0 1 1.538 1.538v596.92a1.538 1.538 0 0 1 -1.538 1.538h-596.92a1.538 1.538 0 0 1 -1.538 -1.538v-596.92a1.538 1.538 0 0 1 1.538 -1.538" fill="none" stroke="#4a0" stroke-linejoin="round" stroke-width="10"/>
  <g transform="matrix(6.7471 0 0 6.7471 -4283.4 -3672.1)">
   <path transform="translate(5.802 124.9)" d="m641.79 486.5h35.357c2.9678 0 5.3571 2.3893 5.3571 5.3572v64.286c0 2.9679-2.3893 5.3571-5.3571 5.3571h-35.357c-2.9679 0-5.3571-2.3893-5.3571-5.3571v-64.286c0-2.9679 2.3893-5.3572 5.3571-5.3572z" fill="#4a0"/>
   <path d="m649.21 616.05h31.761c1.8865 0 3.4053 1.5188 3.4053 3.4053v18.006c0 1.8865-1.5188 3.4053-3.4053 3.4053h-31.761c-1.8866 0-3.4053-1.5188-3.4053-3.4053v-18.006c0-1.8865 1.5188-3.4053 3.4053-3.4053z" fill="#fff"/>
   <path transform="translate(5.802 124.9)" d="m681.07 514.9s8.368 16.997 7.3214 25.893c-1.7857 15.179 16.607 18.214 18.214 4.2857 1.314-11.388-17.228-27.92-18.214-34.643-1.9643-13.393 6.6071-15.893 6.6071-15.893" fill="none" stroke="#4a0" stroke-linecap="round" stroke-width="2.4"/>
   <path d="m700.09 619.44s-0.17857-4.2857-3.5714-6.9643l2.1429-2.3214s6.6071 4.6429 7.1428 12.5-0.53571 8.2143-0.53571 8.2143l-6.7857-1.25s2.6786-7.8572 1.6072-10.179z" fill="#4a0"/>
  </g>
 </g>
</svg>
